:SAMPLES-PER-SECOND 30
:FULLY-SPECIFIED
:DEGREES
161
root  -6.62307 38.971 14.5637 -178.827 43.3579 -179.939
RightUpLeg  -11.7702 -6.24425 -4.64039
RightLeg  27.2616 -8.15464 -4.77759
RightFoot  -7.93236 -0.594718 17.9554
RightToes  2.32829e-010 0 -3.6325e-017
Spine  10.0139 0.437353 2.34337
Spine1  24.0775 2.24298 -2.57129
HEad  -17.7828 32.0621 -14.858
LeftShoulder1  0.856722 -0.0537004 -17.4157
LeftArm  13.6869 14.0243 -56.089
LeftForeArm  63.0458 -78.8566 -66.7034
LeftHand  -2.23549 -3.71012 28.2344
RightShoulder  0.378398 -1.30134 9.98841
RightArm  9.01629 -10.4336 60.3788
RightForeArm  129.855 67.3144 151.927
RightHand  -1.10415 3.55071 -14.5208
LeftUpLeg  -17.7807 -3.06515 12.189
LeftLeg  40.2145 4.9148 4.84203
LeftFoot  0.952683 1.99044 -18.4372
LeftToes  -5.54824e-011 -8.71001e-011 8.3852e-012
162
root  -6.51311 39.3342 14.417 -178.388 41.7713 179.336
RightUpLeg  -11.3466 -7.30316 -5.48618
RightLeg  25.2688 -7.94571 -4.30345
RightFoot  -5.49831 -1.04122 19.4965
RightToes  2.32829e-010 0 -3.6325e-017
Spine  9.55988 0.615942 1.21575
Spine1  23.3512 2.00055 -2.17125
HEad  -17.0625 31.1378 -13.951
LeftShoulder1  0.837733 -0.054089 -16.8362
LeftArm  16.4438 16.0993 -55.2872
LeftForeArm  72.9192 -79.4578 -74.1689
LeftHand  -1.88798 -3.7331 24.0051
RightShoulder  0.326019 -1.57512 9.69716
RightArm  8.48584 -12.437 59.2968
RightForeArm  131.601 65.6886 154.101
RightHand  -1.01477 3.2935 -13.7555
LeftUpLeg  -17.6189 -2.87618 10.7566
LeftLeg  33.9237 2.52836 2.2367
LeftFoot  -2.33633 1.63039 -20.3832
LeftToes  -5.54824e-011 -8.71001e-011 8.3852e-012
163
root  -6.47047 39.4763 14.2733 -177.604 39.8805 178.976
RightUpLeg  -11.9411 -8.89615 -6.21499
RightLeg  25.2372 -6.80985 -3.71319
RightFoot  -4.25006 -1.3357 20.8839
RightToes  2.32829e-010 0 -3.6325e-017
Spine  9.68598 0.588534 0.20574
Spine1  21.7019 1.45026 -1.52833
HEad  -16.4573 30.102 -13.1072
LeftShoulder1  0.838033 -0.168108 -16.0487
LeftArm  18.3414 17.8825 -54.9799
LeftForeArm  75.9765 -79.6002 -75.6949
LeftHand  -1.73402 -3.84562 21.8529
RightShoulder  0.284259 -1.7868 9.32133
RightArm  8.15899 -14.1325 58.5545
RightForeArm  132.811 65.1388 154.833
RightHand  -0.932903 3.00145 -13.0909
LeftUpLeg  -17.8223 -4.00909 9.86216
LeftLeg  27.3806 -1.65413 -0.606454
LeftFoot  -4.04687 1.50381 -22.8984
LeftToes  -5.54824e-011 -8.71001e-011 8.3852e-012
164
root  -6.50116 39.3424 14.1341 -176.69 38.7647 178.965
RightUpLeg  -13.7487 -8.97564 -6.62766
RightLeg  27.5822 -5.70416 -3.45988
RightFoot  -4.22796 -1.39431 21.7281
RightToes  2.32829e-010 0 -3.6325e-017
Spine  10.1734 0.647257 -0.607481
Spine1  19.8567 1.08639 -0.932725
HEad  -16.6687 29.1221 -12.6745
LeftShoulder1  0.84726 -0.327195 -15.2827
LeftArm  19.317 19.3837 -55.0774
LeftForeArm  73.3574 -79.4775 -74.7125
LeftHand  -1.7605 -3.90431 22.0293
RightShoulder  0.24829 -1.96579 8.87377
RightArm  8.17658 -14.5952 58.2824
RightForeArm  131.816 65.6705 154.132
RightHand  -0.814412 2.35439 -12.3731
LeftUpLeg  -18.6405 -4.99047 9.47401
LeftLeg  24.0982 -4.76077 -2.02466
LeftFoot  -4.53297 1.37031 -22.3071
LeftToes  -5.54824e-011 -8.71001e-011 8.3852e-012
165
root  -6.58473 38.9964 13.977 -176.482 38.6748 179.041
RightUpLeg  -15.1804 -7.88613 -7.02177
RightLeg  30.6061 -4.91129 -3.37522
RightFoot  -5.97213 -1.09806 22.3056
RightToes  2.32829e-010 0 -3.6325e-017
Spine  10.6128 0.787038 -1.35112
Spine1  19.4684 1.02638 -0.677363
HEad  -17.9428 28.4871 -13.1207
LeftShoulder1  0.912046 -0.67204 -14.9776
LeftArm  19.1339 19.6728 -55.323
LeftForeArm  63.8598 -78.921 -68.2949
LeftHand  -1.80671 -3.8455 22.7256
RightShoulder  0.23085 -2.03618 8.41445
RightArm  8.31 -13.1564 58.5117
RightForeArm  125.404 67.2677 151.468
RightHand  -0.681961 1.38602 -11.8221
LeftUpLeg  -19.3444 -4.78556 8.99276
LeftLeg  25.044 -5.45746 -2.44141
LeftFoot  -6.48812 0.822476 -18.0853
LeftToes  -5.54824e-011 -8.71001e-011 8.3852e-012
166
root  -6.71962 38.5645 13.7996 -177.503 39.2759 179.035
RightUpLeg  -15.014 -7.24509 -7.62232
RightLeg  32.8703 -4.28823 -3.22975
RightFoot  -9.3685 -0.460335 22.6516
RightToes  2.32829e-010 0 -3.6325e-017
Spine  11.1767 0.960776 -1.85734
Spine1  20.845 1.21816 -0.793806
HEad  -19.6903 28.0328 -14.0793
LeftShoulder1  1.03704 -1.1387 -15.5209
LeftArm  18.1652 17.7 -55.5148
LeftForeArm  47.8867 -77.2861 -54.8601
LeftHand  -1.79949 -3.44106 23.6425
RightShoulder  0.243333 -1.94199 8.22536
RightArm  8.40254 -10.4929 59.0052
RightForeArm  114.308 69.4714 146.883
RightHand  -0.624491 0.674807 -12.0433
LeftUpLeg  -18.8538 -4.04196 8.1822
LeftLeg  27.5945 -4.29251 -2.08782
LeftFoot  -10.217 0.194087 -13.8404
LeftToes  -5.54824e-011 -8.71001e-011 8.3852e-012
167
root  -6.88662 38.2241 13.6392 -179.084 40.2796 178.708
RightUpLeg  -14.2091 -7.40158 -8.44147
RightLeg  34.3039 -3.63496 -2.91709
RightFoot  -12.2337 0.0897624 22.1682
RightToes  2.32829e-010 0 -3.6325e-017
Spine  11.9849 1.19575 -2.21046
Spine1  22.5356 1.61367 -1.25618
HEad  -21.0454 27.5607 -14.7899
LeftShoulder1  1.16688 -1.51265 -16.5387
LeftArm  17.1221 14.2101 -55.855
LeftForeArm  32.8502 -74.4884 -42.1188
LeftHand  -1.83197 -2.60666 26.4399
RightShoulder  0.281791 -1.72132 8.46045
RightArm  8.43164 -8.23134 59.7907
RightForeArm  104.18 71.4058 141.898
RightHand  -0.674702 0.666383 -13.0057
LeftUpLeg  -17.6459 -3.68253 7.20832
LeftLeg  29.2137 -2.86834 -1.39157
LeftFoot  -13.3969 -0.141712 -12.0367
LeftToes  -5.54824e-011 -8.71001e-011 8.3852e-012
168
root  -7.02285 38.1063 13.5062 -179.87 41.3827 178.007
RightUpLeg  -14.4299 -7.51194 -9.23652
RightLeg  35.1134 -2.92726 -2.47166
RightFoot  -12.8944 0.199343 20.8783
RightToes  2.32829e-010 0 -3.6325e-017
Spine  12.4752 1.39883 -2.67466
Spine1  23.2208 1.96784 -1.79246
HEad  -21.5173 27.3805 -15.149
LeftShoulder1  1.23789 -1.72079 -17.0118
LeftArm  16.1892 11.7823 -56.6183
LeftForeArm  25.5039 -72.5998 -36.7782
LeftHand  -2.00291 -1.99133 31.0168
RightShoulder  0.321502 -1.50962 8.80681
RightArm  8.24493 -7.38644 61.2357
RightForeArm  99.7663 72.3213 139.153
RightHand  -0.761336 1.05658 -13.8137
LeftUpLeg  -17.0483 -3.52448 6.27541
LeftLeg  29.274 -2.28245 -1.03419
LeftFoot  -14.4777 -0.240062 -11.8718
LeftToes  -5.54824e-011 -8.71001e-011 8.3852e-012
169
root  -7.05818 38.2553 13.3756 -179.269 42.2085 177.265
RightUpLeg  -15.4793 -7.16698 -9.64797
RightLeg  34.3833 -3.11786 -2.54065
RightFoot  -12.3734 0.0980082 20.1326
RightToes  2.32829e-010 0 -3.6325e-017
Spine  12.2508 1.39321 -3.08189
Spine1  22.7473 2.03854 -2.17519
HEad  -21.0105 27.7169 -15.4766
LeftShoulder1  1.22228 -1.75875 -16.498
LeftArm  15.5935 12.3271 -57.1356
LeftForeArm  29.2348 -73.6952 -39.9556
LeftHand  -2.31207 -2.30694 34.2131
RightShoulder  0.334148 -1.4337 8.82134
RightArm  7.60391 -7.63579 62.9974
RightForeArm  100.854 71.8604 140.403
RightHand  -0.782606 1.30498 -13.6837
LeftUpLeg  -17.0028 -2.96752 5.63274
LeftLeg  27.4015 -2.41613 -1.00983
LeftFoot  -13.9886 -0.202404 -12.3604
LeftToes  -5.54824e-011 -8.71001e-011 8.3852e-012
170
root  -6.97963 38.6008 13.244 -177.737 42.689 176.969
RightUpLeg  -15.9855 -7.36103 -9.36274
RightLeg  31.8658 -5.62858 -3.97626
RightFoot  -12.22 0.0751148 20.5074
RightToes  2.32829e-010 0 -3.6325e-017
Spine  11.8011 1.2011 -2.68988
Spine1  21.3563 2.05273 -2.69161
HEad  -19.6505 28.0894 -15.5566
LeftShoulder1  1.1442 -1.58082 -15.7101
LeftArm  16.2113 15.4048 -56.062
LeftForeArm  46.063 -76.9544 -52.7767
LeftHand  -2.60086 -3.31692 34.0363
RightShoulder  0.321397 -1.47114 8.44838
RightArm  6.45669 -7.9679 63.6987
RightForeArm  104.709 70.074 144.685
RightHand  -0.695606 1.11271 -12.5132
LeftUpLeg  -16.6404 -2.08919 5.46711
LeftLeg  23.7371 -2.40088 -0.822605
LeftFoot  -12.9409 -0.109868 -13.4105
LeftToes  -5.54824e-011 -8.71001e-011 8.3852e-012
